<svg width="20" height="20" viewBox="0 0 20 20" fill="none" xmlns="http://www.w3.org/2000/svg">
<path d="M19.8055 8.0415H19V8H10V12H15.6515C14.827 14.3285 12.6115 16 10 16C6.6865 16 4 13.3135 4 10C4 6.6865 6.6865 4 10 4C11.5295 4 12.921 4.577 13.9805 5.5195L16.809 2.691C15.023 1.0265 12.634 0 10 0C4.4775 0 0 4.4775 0 10C0 15.5225 4.4775 20 10 20C15.5225 20 20 15.5225 20 10C20 9.3295 19.931 8.675 19.8055 8.0415Z" fill="#FFC107"/>
<path d="M1.15314 5.3455L4.43864 7.755C5.32764 5.554 7.48064 4 10.0001 4C11.5296 4 12.9211 4.577 13.9806 5.5195L16.8091 2.691C15.0231 1.0265 12.6341 0 10.0001 0C6.15914 0 2.82814 2.1685 1.15314 5.3455Z" fill="#FF3D00"/>
<path d="M9.99985 20.0001C12.5829 20.0001 14.9299 19.0116 16.7044 17.4041L13.6094 14.7851C12.6054 15.5456 11.3574 16.0001 9.99985 16.0001C7.39885 16.0001 5.19035 14.3416 4.35835 12.0271L1.09735 14.5396C2.75235 17.7781 6.11335 20.0001 9.99985 20.0001Z" fill="#4CAF50"/>
<path d="M19.8055 8.04161H19V8.00011H10V12.0001H15.6515C15.2555 13.1186 14.536 14.0831 13.608 14.7856C13.6085 14.7851 13.609 14.7851 13.6095 14.7846L16.7045 17.4036C16.4855 17.6026 20 15.0001 20 10.0001C20 9.32961 19.931 8.67511 19.8055 8.04161Z" fill="#1976D2"/>
</svg>
